<svg width="20" height="20" viewBox="0 0 20 20" fill="none" xmlns="http://www.w3.org/2000/svg">
<g clip-path="url(#clip0_254_4899)">
<path d="M10 20C15.5228 20 20 15.5228 20 10C20 4.47715 15.5228 0 10 0C4.47715 0 0 4.47715 0 10C0 15.5228 4.47715 20 10 20Z" fill="#0088CC"/>
<path fill-rule="evenodd" clip-rule="evenodd" d="M7.21493 6.60718H12.8221C13.0364 6.60718 13.2149 6.64289 13.4292 6.75003C13.6792 6.85718 13.8221 7.03575 13.8935 7.17861C13.8935 7.17861 13.8935 7.21432 13.9292 7.21432C14.0364 7.39289 14.1078 7.60718 14.1078 7.85718C14.1078 8.07146 14.0721 8.28575 13.9292 8.50003L10.3935 14.5715C10.3221 14.7143 10.1792 14.7857 10.0006 14.7857C9.85778 14.7857 9.71493 14.7143 9.60778 14.5715L6.1435 8.50003C6.07207 8.35718 5.92921 8.17861 5.92921 7.89289C5.8935 7.64289 5.96493 7.42861 6.07207 7.21432C6.17921 7.00004 6.35778 6.82146 6.60778 6.75003C6.82207 6.60718 7.07207 6.60718 7.21493 6.60718ZM9.57207 7.46432H7.21493C7.07207 7.46432 7.00064 7.46432 6.96493 7.50003C6.8935 7.53575 6.85778 7.57146 6.82207 7.64289C6.78636 7.67861 6.78635 7.75003 6.78635 7.82146C6.78635 7.85718 6.82207 7.89289 6.8935 8.03575L9.57207 12.6786V7.46432ZM10.4292 7.46432V12.7143L13.1435 8.03575C13.1792 7.96432 13.1792 7.89289 13.1792 7.82146C13.1792 7.75003 13.1792 7.67861 13.1435 7.64289C13.1078 7.60718 13.1078 7.57146 13.0721 7.57146L13.0364 7.53575C12.9649 7.50003 12.8935 7.50003 12.7864 7.50003H10.4292V7.46432Z" fill="white"/>
</g>
<defs>
<clipPath id="clip0_254_4899">
<rect width="20" height="20" fill="white"/>
</clipPath>
</defs>
</svg>
